<svg width="36" height="36" viewBox="0 0 36 36" xmlns="http://www.w3.org/2000/svg" xmlns:xlink="http://www.w3.org/1999/xlink">
    <defs>
        <filter x="-6.9%" y="-6.9%" width="113.9%" height="113.9%" filterUnits="objectBoundingBox" id="a">
            <feGaussianBlur stdDeviation="2.5" in="SourceAlpha" result="shadowBlurInner1"/>
            <feOffset in="shadowBlurInner1" result="shadowOffsetInner1"/>
            <feComposite in="shadowOffsetInner1" in2="SourceAlpha" operator="arithmetic" k2="-1" k3="1" result="shadowInnerInner1"/>
            <feColorMatrix values="0 0 0 0 0.968627451 0 0 0 0 0.97254902 0 0 0 0 0.984313725 0 0 0 1 0" in="shadowInnerInner1"/>
        </filter>
        <rect id="b" x="0" y="0" width="36" height="36" rx="5.143"/>
    </defs>
    <g fill="none" fill-rule="evenodd">
        <use fill="#000" filter="url(#a)" xlink:href="#b"/>
        <rect stroke="#EFF1F4" stroke-linejoin="square" x=".5" y=".5" width="35" height="35" rx="5.143"/>
        <path d="M24.158 16.714c.71 0 1.306.202 1.766.625.45.424.68.965.68 1.632 0 .657-.251 1.25-.732 1.791-.293.307-.805.71-1.547 1.219-.805.54-1.286 1.017-1.442 1.43h3.731v1.018h-5.143c0-.753.24-1.41.743-1.982.271-.328.836-.784 1.683-1.378.501-.36.857-.646 1.066-.868.334-.382.512-.795.512-1.24 0-.424-.115-.742-.345-.954-.23-.212-.575-.318-1.014-.318-.47 0-.826.16-1.066.488-.251.318-.376.773-.397 1.388h-1.14c.01-.848.251-1.526.721-2.035.481-.55 1.13-.816 1.924-.816zm-12.972-5.143V17.1l5.914.001v-5.529h1.8V24.43h-1.8V18.9h-5.914v5.529h-1.8V11.57h1.8z" fill="#17181A" fill-rule="nonzero"/>
    </g>
</svg>
