<svg width="36" height="36" viewBox="0 0 36 36" xmlns="http://www.w3.org/2000/svg" xmlns:xlink="http://www.w3.org/1999/xlink">
    <defs>
        <filter x="-6.9%" y="-6.9%" width="113.9%" height="113.9%" filterUnits="objectBoundingBox" id="a">
            <feGaussianBlur stdDeviation="2.5" in="SourceAlpha" result="shadowBlurInner1"/>
            <feOffset in="shadowBlurInner1" result="shadowOffsetInner1"/>
            <feComposite in="shadowOffsetInner1" in2="SourceAlpha" operator="arithmetic" k2="-1" k3="1" result="shadowInnerInner1"/>
            <feColorMatrix values="0 0 0 0 0.968627451 0 0 0 0 0.97254902 0 0 0 0 0.984313725 0 0 0 1 0" in="shadowInnerInner1"/>
        </filter>
        <rect id="b" x="0" y="0" width="36" height="36" rx="5.143"/>
    </defs>
    <g fill="none" fill-rule="evenodd">
        <use fill="#000" filter="url(#a)" xlink:href="#b"/>
        <rect stroke="#EFF1F4" stroke-linejoin="square" x=".5" y=".5" width="35" height="35" rx="5.143"/>
        <path d="M26.5 22.795c0 1.218-1.055 2.205-2.355 2.205h-12.29c-1.3 0-2.355-.987-2.355-2.205v-9.59C9.5 11.987 10.555 11 11.855 11h12.29c1.3 0 2.355.987 2.355 2.205zm-11.982-1.883-3.687.001v1.882c0 .491.396.897.905.952l.12.006h2.662v-2.84zm5.632 0h-4.301v2.841h4.302l-.001-2.84zm1.332 0v2.841h2.663c.565 0 1.024-.429 1.024-.958l-.001-1.882h-3.686zm3.686-1.246v-3.297h-3.686v3.297h3.686zm-14.337 0h3.687V16.37H10.83v3.297zm9.319-3.297h-4.301v3.297h4.3V16.37zm3.995-4.122h-12.29c-.565 0-1.024.429-1.024.958v1.918h14.337v-1.918c0-.491-.395-.897-.904-.952l-.12-.006z" fill="#000" fill-rule="nonzero"/>
    </g>
</svg>
